# xmcd
#
# Track frame offsets:
#	150
#	17092
#	34047
#	51352
#	64505
#	84572
#	98275
#	111660
#	133025
#	151175
#	165747
#
# Disc length: 2438 seconds
#
# Revision: 0
# Processed by: cddbd v1.5.2PL0 Copyright (c) Steve Scherf et al.
# Submitted via: audiograbber 1.83.01
#
DISCID=8509840b
DTITLE=Tex Beaumont - One-eyed jacks
DYEAR=1900
DGENRE=Country
TTITLE0=One-eyed jacks
TTITLE1=Dancing in dreamland
TTITLE2=Guess I'll be going soon
TTITLE3=Bells of Shoreditch
TTITLE4=Powder blue Chevrolet
TTITLE5=Baby I just want to get on your nerves
TTITLE6=Who would I love
TTITLE7=Poor girl's Elvis, poor man's Marylin Monroe
TTITLE8=Lolita
TTITLE9=Honky tonk eyes
TTITLE10=Closing time
EXTD=
EXTT0=
EXTT1=
EXTT2=
EXTT3=
EXTT4=
EXTT5=
EXTT6=
EXTT7=
EXTT8=
EXTT9=
EXTT10=
PLAYORDER=
